# xmcd
#
# Track frame offsets: 
#        150
#        9633
#        19187
#        30348
#        38885
#        47614
#        60585
#        73408
#        83812
#        92789
#        102464
#        112269
#        124132
#        137944
#        147836
#        160405
#        172122
#        182847
#        195219
#        208347
#        220664
#        242271
#        255992
#        268550
#
# Disc length: 3792 seconds
#
# Revision: 1
# Processed by: cddbd v1.5.2PL0 Copyright (c) Steve Scherf et al.
# Submitted via: ExactAudioCopyFreeDBPlugin 1.0
#
DISCID=5b0ece18
DTITLE=Everly Brothers - The Works
DYEAR=2007
DGENRE=Rock and Roll
TTITLE0=The Price Of Love
TTITLE1=I'll Never Get Over You
TTITLE2=It's Been A Long Dry Spell
TTITLE3=Love Is All I Need
TTITLE4=Susie Q
TTITLE5=I'm Gonna Move To The Outskirts Of Town
TTITLE6=Love Is Strange
TTITLE7=Man With Money
TTITLE8=Follow Me
TTITLE9=Don't Let The Whole World Know
TTITLE10=See See Rider
TTITLE11=So Lonely
TTITLE12=Signs That Will Never Change
TTITLE13=I've Been Wrong Before
TTITLE14=Have You Ever Loved Somebody
TTITLE15=Don't Run And Hide
TTITLE16=Leave My Girl Alone
TTITLE17=Bowling Green
TTITLE18=It's My Time
TTITLE19=Empty Boxes
TTITLE20=Lord Of The Manor
TTITLE21=Less Of Me
TTITLE22=Milk Train
TTITLE23=Yves
EXTD=
EXTT0=
EXTT1=
EXTT2=
EXTT3=
EXTT4=
EXTT5=
EXTT6=
EXTT7=
EXTT8=
EXTT9=
EXTT10=
EXTT11=
EXTT12=
EXTT13=
EXTT14=
EXTT15=
EXTT16=
EXTT17=
EXTT18=
EXTT19=
EXTT20=
EXTT21=
EXTT22=
EXTT23=
PLAYORDER=
